<svg width="54" height="56" viewBox="0 0 54 56" fill="none" xmlns="http://www.w3.org/2000/svg">
<g filter="url(#filter0_d)">
<rect x="2" width="50" height="50" rx="8" fill="white"/>
</g>
<path d="M42.5593 18.4033C42.4855 16.7293 42.2148 15.5785 41.827 14.5813C41.427 13.5228 40.8115 12.5751 40.0052 11.7872C39.2174 10.9872 38.2634 10.3655 37.2172 9.97166C36.2142 9.58388 35.0693 9.31318 33.3954 9.23938C31.7089 9.15932 31.1735 9.14081 26.8961 9.14081C22.6188 9.14081 22.0834 9.15932 20.4031 9.23313C18.7292 9.30693 17.5783 9.57787 16.5813 9.96541C15.5226 10.3655 14.5749 10.9809 13.7871 11.7872C12.987 12.5751 12.3655 13.529 11.9715 14.5753C11.5837 15.5785 11.313 16.7231 11.2392 18.3971C11.1591 20.0835 11.1406 20.6189 11.1406 24.8963C11.1406 29.1737 11.1591 29.7091 11.2329 31.3893C11.3067 33.0633 11.5777 34.2141 11.9655 35.2113C12.3655 36.2699 12.987 37.2176 13.7871 38.0054C14.5749 38.8055 15.5288 39.4272 16.5751 39.8209C17.5783 40.2087 18.7229 40.4794 20.3971 40.5532C22.0771 40.6273 22.6127 40.6456 26.8901 40.6456C31.1675 40.6456 31.7029 40.6273 33.3831 40.5532C35.0571 40.4794 36.2079 40.2087 37.2049 39.8209C39.3222 39.0024 40.9962 37.3284 41.8148 35.2113C42.2023 34.2081 42.4732 33.0633 42.547 31.3893C42.6208 29.7091 42.6394 29.1737 42.6394 24.8963C42.6394 20.6189 42.6331 20.0835 42.5593 18.4033ZM39.7222 31.2662C39.6544 32.8048 39.396 33.6357 39.1806 34.1896C38.6512 35.5621 37.5619 36.6514 36.1894 37.1808C35.6355 37.3962 34.7986 37.6546 33.266 37.7222C31.6043 37.7962 31.1059 37.8145 26.9024 37.8145C22.6988 37.8145 22.1942 37.7962 20.5385 37.7222C18.9999 37.6546 18.169 37.3962 17.6151 37.1808C16.9321 36.9283 16.3104 36.5283 15.8058 36.0052C15.2826 35.4943 14.8826 34.8788 14.6302 34.1958C14.4148 33.6419 14.1563 32.8048 14.0888 31.2725C14.0147 29.6107 13.9965 29.1121 13.9965 24.9086C13.9965 20.705 14.0147 20.2004 14.0888 18.5449C14.1563 17.0063 14.4148 16.1754 14.6302 15.6215C14.8826 14.9383 15.2826 14.3168 15.812 13.812C16.3227 13.2888 16.9381 12.8888 17.6214 12.6366C18.1753 12.4212 19.0124 12.1628 20.5447 12.095C22.2064 12.0212 22.7051 12.0026 26.9084 12.0026C31.1182 12.0026 31.6166 12.0212 33.2723 12.095C34.8109 12.1628 35.6418 12.4212 36.1957 12.6366C36.8787 12.8888 37.5004 13.2888 38.005 13.812C38.5281 14.3228 38.9282 14.9383 39.1806 15.6215C39.396 16.1754 39.6544 17.0123 39.7222 18.5449C39.796 20.2066 39.8145 20.705 39.8145 24.9086C39.8145 29.1121 39.796 29.6045 39.7222 31.2662Z" fill="black"/>
<path d="M26.8964 16.8033C22.4284 16.8033 18.8032 20.4282 18.8032 24.8965C18.8032 29.3647 22.4284 32.9896 26.8964 32.9896C31.3646 32.9896 34.9895 29.3647 34.9895 24.8965C34.9895 20.4282 31.3646 16.8033 26.8964 16.8033ZM26.8964 30.1463C23.9978 30.1463 21.6465 27.7953 21.6465 24.8965C21.6465 21.9976 23.9978 19.6466 26.8964 19.6466C29.7952 19.6466 32.1462 21.9976 32.1462 24.8965C32.1462 27.7953 29.7952 30.1463 26.8964 30.1463Z" fill="black"/>
<path d="M37.1989 16.4832C37.1989 17.5266 36.3529 18.3726 35.3093 18.3726C34.2659 18.3726 33.4199 17.5266 33.4199 16.4832C33.4199 15.4396 34.2659 14.5938 35.3093 14.5938C36.3529 14.5938 37.1989 15.4396 37.1989 16.4832Z" fill="black"/>
<defs>
<filter id="filter0_d" x="0" y="0" width="54" height="56" filterUnits="userSpaceOnUse" color-interpolation-filters="sRGB">
<feFlood flood-opacity="0" result="BackgroundImageFix"/>
<feColorMatrix in="SourceAlpha" type="matrix" values="0 0 0 0 0 0 0 0 0 0 0 0 0 0 0 0 0 0 127 0"/>
<feOffset dy="4"/>
<feGaussianBlur stdDeviation="1"/>
<feColorMatrix type="matrix" values="0 0 0 0 0 0 0 0 0 0 0 0 0 0 0 0 0 0 0.25 0"/>
<feBlend mode="normal" in2="BackgroundImageFix" result="effect1_dropShadow"/>
<feBlend mode="normal" in="SourceGraphic" in2="effect1_dropShadow" result="shape"/>
</filter>
</defs>
</svg>
