<svg width="217" height="404" viewBox="0 0 217 404" fill="none" xmlns="http://www.w3.org/2000/svg">
<g filter="url(#filter0_d)">
<path d="M37.3081 240.4H41.7721V274H38.1721L20.8921 248.896V274H16.4281V240.4H20.0281L37.3081 265.456V240.4ZM68.3994 250H72.5754V274H68.3994V269.872C66.3194 273.04 63.2954 274.624 59.3274 274.624C55.9674 274.624 53.1034 273.408 50.7354 270.976C48.3674 268.512 47.1834 265.52 47.1834 262C47.1834 258.48 48.3674 255.504 50.7354 253.072C53.1034 250.608 55.9674 249.376 59.3274 249.376C63.2954 249.376 66.3194 250.96 68.3994 254.128V250ZM59.8554 270.592C62.2874 270.592 64.3194 269.776 65.9514 268.144C67.5834 266.48 68.3994 264.432 68.3994 262C68.3994 259.568 67.5834 257.536 65.9514 255.904C64.3194 254.24 62.2874 253.408 59.8554 253.408C57.4554 253.408 55.4394 254.24 53.8074 255.904C52.1754 257.536 51.3594 259.568 51.3594 262C51.3594 264.432 52.1754 266.48 53.8074 268.144C55.4394 269.776 57.4554 270.592 59.8554 270.592ZM91.9584 254.032H85.5744V267.04C85.5744 268.224 85.7984 269.072 86.2464 269.584C86.7264 270.064 87.4464 270.32 88.4064 270.352C89.3664 270.352 90.5504 270.32 91.9584 270.256V274C88.3104 274.48 85.6384 274.192 83.9424 273.136C82.2464 272.048 81.3984 270.016 81.3984 267.04V254.032H76.6464V250H81.3984V244.528L85.5744 243.28V250H91.9584V254.032ZM99.0144 245.632C98.2144 245.632 97.5424 245.36 96.9984 244.816C96.4544 244.272 96.1824 243.616 96.1824 242.848C96.1824 242.08 96.4544 241.424 96.9984 240.88C97.5424 240.304 98.2144 240.016 99.0144 240.016C99.7824 240.016 100.438 240.304 100.982 240.88C101.526 241.424 101.798 242.08 101.798 242.848C101.798 243.616 101.526 244.272 100.982 244.816C100.438 245.36 99.7824 245.632 99.0144 245.632ZM96.9024 274V250H101.078V274H96.9024ZM127.705 270.976C125.241 273.408 122.249 274.624 118.729 274.624C115.209 274.624 112.217 273.408 109.753 270.976C107.321 268.544 106.105 265.552 106.105 262C106.105 258.448 107.321 255.456 109.753 253.024C112.217 250.592 115.209 249.376 118.729 249.376C122.249 249.376 125.241 250.592 127.705 253.024C130.169 255.456 131.401 258.448 131.401 262C131.401 265.552 130.169 268.544 127.705 270.976ZM118.729 270.544C121.129 270.544 123.145 269.728 124.777 268.096C126.409 266.464 127.225 264.432 127.225 262C127.225 259.568 126.409 257.536 124.777 255.904C123.145 254.272 121.129 253.456 118.729 253.456C116.361 253.456 114.361 254.272 112.729 255.904C111.097 257.536 110.281 259.568 110.281 262C110.281 264.432 111.097 266.464 112.729 268.096C114.361 269.728 116.361 270.544 118.729 270.544ZM148.276 249.376C151.092 249.376 153.348 250.272 155.044 252.064C156.74 253.824 157.588 256.224 157.588 259.264V274H153.412V259.504C153.412 257.552 152.884 256.048 151.828 254.992C150.772 253.904 149.316 253.36 147.46 253.36C145.38 253.36 143.7 254.016 142.42 255.328C141.14 256.608 140.5 258.592 140.5 261.28V274H136.324V250H140.5V253.456C142.196 250.736 144.788 249.376 148.276 249.376ZM183.29 250H187.466V274H183.29V269.872C181.21 273.04 178.186 274.624 174.218 274.624C170.858 274.624 167.994 273.408 165.626 270.976C163.258 268.512 162.074 265.52 162.074 262C162.074 258.48 163.258 255.504 165.626 253.072C167.994 250.608 170.858 249.376 174.218 249.376C178.186 249.376 181.21 250.96 183.29 254.128V250ZM174.746 270.592C177.178 270.592 179.21 269.776 180.842 268.144C182.474 266.48 183.29 264.432 183.29 262C183.29 259.568 182.474 257.536 180.842 255.904C179.21 254.24 177.178 253.408 174.746 253.408C172.346 253.408 170.33 254.24 168.698 255.904C167.066 257.536 166.25 259.568 166.25 262C166.25 264.432 167.066 266.48 168.698 268.144C170.33 269.776 172.346 270.592 174.746 270.592ZM193.793 274V238.96H197.969V274H193.793ZM12.6187 325.776H27.1147V330H8.15469V296.4H12.6187V325.776ZM33.2722 301.632C32.4722 301.632 31.8002 301.36 31.2562 300.816C30.7122 300.272 30.4402 299.616 30.4402 298.848C30.4402 298.08 30.7122 297.424 31.2562 296.88C31.8002 296.304 32.4722 296.016 33.2722 296.016C34.0402 296.016 34.6962 296.304 35.2402 296.88C35.7842 297.424 36.0562 298.08 36.0562 298.848C36.0562 299.616 35.7842 300.272 35.2402 300.816C34.6962 301.36 34.0402 301.632 33.2722 301.632ZM31.1602 330V306H35.3362V330H31.1602ZM53.6591 305.376C56.4751 305.376 58.7311 306.272 60.4271 308.064C62.1231 309.824 62.9711 312.224 62.9711 315.264V330H58.7951V315.504C58.7951 313.552 58.2671 312.048 57.2111 310.992C56.1551 309.904 54.6991 309.36 52.8431 309.36C50.7631 309.36 49.0831 310.016 47.8031 311.328C46.5231 312.608 45.8831 314.592 45.8831 317.28V330H41.7071V306H45.8831V309.456C47.5791 306.736 50.1711 305.376 53.6591 305.376ZM88.7208 306H92.8488V328.992C92.8488 332.544 91.6488 335.296 89.2488 337.248C86.8488 339.232 83.9688 340.224 80.6088 340.224C77.9208 340.224 75.6008 339.712 73.6488 338.688C71.6968 337.696 70.2248 336.256 69.2328 334.368L72.8808 332.304C74.1928 334.992 76.8008 336.336 80.7048 336.336C83.2008 336.336 85.1528 335.68 86.5608 334.368C88.0008 333.056 88.7208 331.264 88.7208 328.992V325.584C86.6088 328.784 83.6008 330.384 79.6968 330.384C76.2728 330.384 73.3768 329.168 71.0088 326.736C68.6408 324.304 67.4568 321.344 67.4568 317.856C67.4568 314.368 68.6408 311.424 71.0088 309.024C73.3768 306.592 76.2728 305.376 79.6968 305.376C83.6328 305.376 86.6408 306.96 88.7208 310.128V306ZM74.0808 323.952C75.7128 325.584 77.7448 326.4 80.1768 326.4C82.6088 326.4 84.6408 325.584 86.2728 323.952C87.9048 322.32 88.7208 320.288 88.7208 317.856C88.7208 315.456 87.9048 313.44 86.2728 311.808C84.6408 310.176 82.6088 309.36 80.1768 309.36C77.7448 309.36 75.7128 310.176 74.0808 311.808C72.4488 313.44 71.6328 315.456 71.6328 317.856C71.6328 320.288 72.4488 322.32 74.0808 323.952ZM115.736 306H119.912V330H115.736V326.544C114.04 329.264 111.448 330.624 107.96 330.624C105.144 330.624 102.888 329.744 101.192 327.984C99.4958 326.192 98.6478 323.776 98.6478 320.736V306H102.824V320.496C102.824 322.448 103.352 323.968 104.408 325.056C105.464 326.112 106.92 326.64 108.776 326.64C110.856 326.64 112.536 326 113.816 324.72C115.096 323.408 115.736 321.408 115.736 318.72V306ZM128.382 301.632C127.582 301.632 126.91 301.36 126.366 300.816C125.822 300.272 125.55 299.616 125.55 298.848C125.55 298.08 125.822 297.424 126.366 296.88C126.91 296.304 127.582 296.016 128.382 296.016C129.15 296.016 129.806 296.304 130.35 296.88C130.894 297.424 131.166 298.08 131.166 298.848C131.166 299.616 130.894 300.272 130.35 300.816C129.806 301.36 129.15 301.632 128.382 301.632ZM126.27 330V306H130.446V330H126.27ZM140.37 312.48C140.37 313.408 140.834 314.16 141.762 314.736C142.69 315.28 143.81 315.728 145.122 316.08C146.434 316.4 147.746 316.784 149.058 317.232C150.37 317.648 151.49 318.384 152.418 319.44C153.346 320.464 153.81 321.792 153.81 323.424C153.81 325.6 152.962 327.344 151.266 328.656C149.602 329.968 147.458 330.624 144.834 330.624C142.498 330.624 140.498 330.112 138.834 329.088C137.17 328.064 135.986 326.704 135.282 325.008L138.882 322.944C139.266 324.096 139.986 325.008 141.042 325.68C142.098 326.352 143.362 326.688 144.834 326.688C146.21 326.688 147.346 326.432 148.242 325.92C149.138 325.376 149.586 324.544 149.586 323.424C149.586 322.496 149.122 321.76 148.194 321.216C147.266 320.64 146.146 320.192 144.834 319.872C143.522 319.52 142.21 319.12 140.898 318.672C139.586 318.224 138.466 317.488 137.538 316.464C136.61 315.44 136.146 314.128 136.146 312.528C136.146 310.448 136.946 308.736 138.546 307.392C140.178 306.048 142.21 305.376 144.642 305.376C146.594 305.376 148.322 305.824 149.826 306.72C151.362 307.584 152.514 308.8 153.282 310.368L149.778 312.336C148.914 310.288 147.202 309.264 144.642 309.264C143.458 309.264 142.45 309.552 141.618 310.128C140.786 310.672 140.37 311.456 140.37 312.48ZM170.872 310.032H164.488V323.04C164.488 324.224 164.712 325.072 165.16 325.584C165.64 326.064 166.36 326.32 167.32 326.352C168.28 326.352 169.464 326.32 170.872 326.256V330C167.224 330.48 164.552 330.192 162.856 329.136C161.16 328.048 160.312 326.016 160.312 323.04V310.032H155.56V306H160.312V300.528L164.488 299.28V306H170.872V310.032ZM177.928 301.632C177.128 301.632 176.456 301.36 175.912 300.816C175.368 300.272 175.096 299.616 175.096 298.848C175.096 298.08 175.368 297.424 175.912 296.88C176.456 296.304 177.128 296.016 177.928 296.016C178.696 296.016 179.352 296.304 179.896 296.88C180.44 297.424 180.712 298.08 180.712 298.848C180.712 299.616 180.44 300.272 179.896 300.816C179.352 301.36 178.696 301.632 177.928 301.632ZM175.816 330V306H179.992V330H175.816ZM197.643 330.624C194.027 330.624 191.019 329.424 188.619 327.024C186.219 324.592 185.019 321.584 185.019 318C185.019 314.416 186.219 311.424 188.619 309.024C191.019 306.592 194.027 305.376 197.643 305.376C200.011 305.376 202.139 305.952 204.027 307.104C205.915 308.224 207.323 309.744 208.251 311.664L204.747 313.68C204.139 312.4 203.195 311.376 201.915 310.608C200.667 309.84 199.243 309.456 197.643 309.456C195.243 309.456 193.227 310.272 191.595 311.904C189.995 313.536 189.195 315.568 189.195 318C189.195 320.4 189.995 322.416 191.595 324.048C193.227 325.68 195.243 326.496 197.643 326.496C199.243 326.496 200.683 326.128 201.963 325.392C203.243 324.624 204.219 323.6 204.891 322.32L208.443 324.384C207.419 326.272 205.947 327.792 204.027 328.944C202.107 330.064 199.979 330.624 197.643 330.624ZM26.114 383.408C23.778 385.552 20.754 386.624 17.042 386.624C13.33 386.624 10.29 385.552 7.922 383.408C5.586 381.232 4.418 378.336 4.418 374.72V352.4H8.882V374.528C8.882 376.896 9.586 378.784 10.994 380.192C12.402 381.568 14.418 382.256 17.042 382.256C19.666 382.256 21.682 381.568 23.09 380.192C24.498 378.784 25.202 376.896 25.202 374.528V352.4H29.618V374.72C29.618 378.336 28.45 381.232 26.114 383.408ZM47.9638 361.376C50.7798 361.376 53.0358 362.272 54.7318 364.064C56.4278 365.824 57.2758 368.224 57.2758 371.264V386H53.0998V371.504C53.0998 369.552 52.5718 368.048 51.5158 366.992C50.4598 365.904 49.0038 365.36 47.1478 365.36C45.0678 365.36 43.3878 366.016 42.1078 367.328C40.8278 368.608 40.1878 370.592 40.1878 373.28V386H36.0117V362H40.1878V365.456C41.8838 362.736 44.4758 361.376 47.9638 361.376ZM65.2175 357.632C64.4175 357.632 63.7455 357.36 63.2015 356.816C62.6575 356.272 62.3855 355.616 62.3855 354.848C62.3855 354.08 62.6575 353.424 63.2015 352.88C63.7455 352.304 64.4175 352.016 65.2175 352.016C65.9855 352.016 66.6415 352.304 67.1855 352.88C67.7295 353.424 68.0015 354.08 68.0015 354.848C68.0015 355.616 67.7295 356.272 67.1855 356.816C66.6415 357.36 65.9855 357.632 65.2175 357.632ZM63.1055 386V362H67.2815V386H63.1055ZM90.4524 362H94.9644L85.3644 386H80.4684L70.8684 362H75.3804L82.9164 381.536L90.4524 362ZM100.487 375.92C100.903 378.064 101.879 379.728 103.415 380.912C104.983 382.096 106.903 382.688 109.175 382.688C112.343 382.688 114.647 381.52 116.087 379.184L119.639 381.2C117.303 384.816 113.783 386.624 109.079 386.624C105.271 386.624 102.167 385.44 99.7666 383.072C97.3986 380.672 96.2146 377.648 96.2146 374C96.2146 370.384 97.3826 367.376 99.7186 364.976C102.055 362.576 105.079 361.376 108.791 361.376C112.311 361.376 115.175 362.624 117.383 365.12C119.623 367.584 120.743 370.56 120.743 374.048C120.743 374.656 120.695 375.28 120.599 375.92H100.487ZM108.791 365.312C106.551 365.312 104.695 365.952 103.223 367.232C101.751 368.48 100.839 370.16 100.487 372.272H116.519C116.167 370 115.271 368.272 113.831 367.088C112.391 365.904 110.711 365.312 108.791 365.312ZM129.719 366.032C131.095 363.056 133.591 361.568 137.207 361.568V365.936C135.159 365.84 133.399 366.384 131.927 367.568C130.455 368.752 129.719 370.656 129.719 373.28V386H125.543V362H129.719V366.032ZM144.002 368.48C144.002 369.408 144.466 370.16 145.394 370.736C146.322 371.28 147.442 371.728 148.754 372.08C150.066 372.4 151.378 372.784 152.69 373.232C154.002 373.648 155.122 374.384 156.05 375.44C156.978 376.464 157.442 377.792 157.442 379.424C157.442 381.6 156.594 383.344 154.898 384.656C153.234 385.968 151.09 386.624 148.466 386.624C146.13 386.624 144.13 386.112 142.466 385.088C140.802 384.064 139.618 382.704 138.914 381.008L142.514 378.944C142.898 380.096 143.618 381.008 144.674 381.68C145.73 382.352 146.994 382.688 148.466 382.688C149.842 382.688 150.978 382.432 151.874 381.92C152.77 381.376 153.218 380.544 153.218 379.424C153.218 378.496 152.754 377.76 151.826 377.216C150.898 376.64 149.778 376.192 148.466 375.872C147.154 375.52 145.842 375.12 144.53 374.672C143.218 374.224 142.098 373.488 141.17 372.464C140.242 371.44 139.778 370.128 139.778 368.528C139.778 366.448 140.578 364.736 142.178 363.392C143.81 362.048 145.842 361.376 148.274 361.376C150.226 361.376 151.954 361.824 153.458 362.72C154.994 363.584 156.146 364.8 156.914 366.368L153.41 368.336C152.546 366.288 150.834 365.264 148.274 365.264C147.09 365.264 146.082 365.552 145.25 366.128C144.418 366.672 144.002 367.456 144.002 368.48ZM164.264 357.632C163.464 357.632 162.792 357.36 162.248 356.816C161.704 356.272 161.432 355.616 161.432 354.848C161.432 354.08 161.704 353.424 162.248 352.88C162.792 352.304 163.464 352.016 164.264 352.016C165.032 352.016 165.688 352.304 166.232 352.88C166.776 353.424 167.048 354.08 167.048 354.848C167.048 355.616 166.776 356.272 166.232 356.816C165.688 357.36 165.032 357.632 164.264 357.632ZM162.152 386V362H166.328V386H162.152ZM185.755 366.032H179.371V379.04C179.371 380.224 179.595 381.072 180.043 381.584C180.523 382.064 181.243 382.32 182.203 382.352C183.163 382.352 184.347 382.32 185.755 382.256V386C182.107 386.48 179.435 386.192 177.739 385.136C176.043 384.048 175.195 382.016 175.195 379.04V366.032H170.443V362H175.195V356.528L179.371 355.28V362H185.755V366.032ZM207.967 362H212.431L202.639 387.488C201.615 390.208 200.175 392.272 198.319 393.68C196.495 395.12 194.383 395.76 191.983 395.6V391.712C194.927 391.936 197.087 390.304 198.463 386.816L198.895 385.904L188.431 362H192.895L201.055 380.816L207.967 362Z" fill="black"/>
</g>
<path d="M193.997 179.998H19.9995C18.3435 179.998 16.9995 178.654 16.9995 176.998V164.999C16.9995 163.343 18.3435 161.999 19.9995 161.999H193.997C195.653 161.999 196.997 163.343 196.997 164.999V176.998C196.997 178.654 195.653 179.998 193.997 179.998ZM22.9994 173.998H190.997V167.999H22.9994V173.998Z" fill="black"/>
<path d="M187.997 167.999H25.9995C24.3435 167.999 22.9995 166.655 22.9995 164.999V152.999C22.9995 151.343 24.3435 149.999 25.9995 149.999H187.997C189.653 149.999 190.997 151.343 190.997 152.999V164.999C190.997 166.655 189.653 167.999 187.997 167.999ZM28.9994 161.999H184.997V155.999H28.9994V161.999Z" fill="black"/>
<path d="M67.9986 155.999H31.9992C30.3432 155.999 28.9993 154.655 28.9993 152.999V140.999C28.9993 139.343 30.3432 137.999 31.9992 137.999H67.9986C69.6546 137.999 70.9986 139.343 70.9986 140.999V152.999C70.9986 154.655 69.6546 155.999 67.9986 155.999ZM34.9992 149.999H64.9987V143.999H34.9992V149.999Z" fill="black"/>
<path d="M61.9988 66.0002H37.9992C36.3432 66.0002 34.9993 64.6562 34.9993 63.0003V51.0005C34.9993 49.3445 36.3432 48.0005 37.9992 48.0005H61.9988C63.6548 48.0005 64.9988 49.3445 64.9988 51.0005V63.0003C64.9988 64.6562 63.6548 66.0002 61.9988 66.0002ZM40.9992 60.0003H58.9989V54.0004H40.9992V60.0003Z" fill="black"/>
<path d="M61.9986 143.999H37.999C37.165 143.999 36.367 143.651 35.8 143.039C35.233 142.424 34.945 141.602 35.008 140.771L41.0079 62.7723C41.1279 61.2093 42.4329 60.0034 43.9989 60.0034H55.9987C57.5647 60.0034 58.8697 61.2093 58.9897 62.7723L64.9896 140.771C65.0526 141.605 64.7676 142.427 64.2006 143.039C63.6306 143.651 62.8356 143.999 61.9986 143.999ZM41.2389 137.999H58.7587L53.2207 66.0003H46.7769L41.2389 137.999Z" fill="black"/>
<path d="M193.998 42.0008H20.0008C18.5698 42.0008 17.3369 40.9898 17.0609 39.5859C16.7819 38.1819 17.5318 36.7749 18.8548 36.2289L105.853 0.229496C106.588 -0.0764988 107.413 -0.0764988 108.148 0.229496L195.147 36.2289C196.47 36.7749 197.22 38.1819 196.944 39.5859C196.662 40.9898 195.429 42.0008 193.998 42.0008ZM35.0966 36.0009H178.902L106.999 6.2474L35.0966 36.0009Z" fill="black"/>
<path d="M181.997 54.0005H31.9992C30.3432 54.0005 28.9993 52.6565 28.9993 51.0005V39.0007C28.9993 37.3447 30.3432 36.0008 31.9992 36.0008H181.997C183.653 36.0008 184.997 37.3447 184.997 39.0007V51.0005C184.997 52.6565 183.653 54.0005 181.997 54.0005ZM34.9992 48.0006H178.997V42.0007H34.9992V48.0006Z" fill="black"/>
<path d="M181.997 155.999H145.998C144.342 155.999 142.998 154.655 142.998 152.999V140.999C142.998 139.343 144.342 137.999 145.998 137.999H181.997C183.653 137.999 184.997 139.343 184.997 140.999V152.999C184.997 154.655 183.653 155.999 181.997 155.999ZM148.997 149.999H178.997V143.999H148.997V149.999Z" fill="black"/>
<path d="M175.997 66.0002H151.997C150.341 66.0002 148.997 64.6562 148.997 63.0003V51.0005C148.997 49.3445 150.341 48.0005 151.997 48.0005H175.997C177.653 48.0005 178.997 49.3445 178.997 51.0005V63.0003C178.997 64.6562 177.653 66.0002 175.997 66.0002ZM154.997 60.0003H172.997V54.0004H154.997V60.0003Z" fill="black"/>
<path d="M175.997 143.999H151.997C151.163 143.999 150.365 143.651 149.798 143.039C149.231 142.424 148.943 141.602 149.006 140.771L155.006 62.7723C155.126 61.2093 156.431 60.0034 157.997 60.0034H169.997C171.563 60.0034 172.868 61.2093 172.988 62.7723L178.988 140.771C179.051 141.605 178.766 142.427 178.199 143.039C177.629 143.651 176.834 143.999 175.997 143.999ZM155.237 137.999H172.757L167.219 66.0003H160.775L155.237 137.999Z" fill="black"/>
<path d="M124.998 155.999H88.9985C87.3425 155.999 85.9985 154.655 85.9985 152.999V140.999C85.9985 139.343 87.3425 137.999 88.9985 137.999H124.998C126.654 137.999 127.998 139.343 127.998 140.999V152.999C127.998 154.655 126.654 155.999 124.998 155.999ZM91.9984 149.999H121.998V143.999H91.9984V149.999Z" fill="black"/>
<path d="M118.998 66.0002H94.9982C93.3423 66.0002 91.9983 64.6562 91.9983 63.0003V51.0005C91.9983 49.3445 93.3423 48.0005 94.9982 48.0005H118.998C120.654 48.0005 121.998 49.3445 121.998 51.0005V63.0003C121.998 64.6562 120.654 66.0002 118.998 66.0002ZM97.9982 60.0003H115.998V54.0004H97.9982V60.0003Z" fill="black"/>
<path d="M118.998 143.999H94.9983C94.1643 143.999 93.3663 143.651 92.7993 143.039C92.2323 142.424 91.9443 141.602 92.0073 140.771L98.0072 62.7723C98.1272 61.2093 99.4322 60.0034 100.998 60.0034H112.998C114.564 60.0034 115.869 61.2093 115.989 62.7723L121.989 140.771C122.052 141.605 121.767 142.427 121.2 143.039C120.63 143.651 119.835 143.999 118.998 143.999ZM98.2382 137.999H115.758L110.22 66.0003H103.776L98.2382 137.999Z" fill="black"/>
<defs>
<filter id="filter0_d" x="0.417969" y="238.96" width="216.013" height="164.664" filterUnits="userSpaceOnUse" color-interpolation-filters="sRGB">
<feFlood flood-opacity="0" result="BackgroundImageFix"/>
<feColorMatrix in="SourceAlpha" type="matrix" values="0 0 0 0 0 0 0 0 0 0 0 0 0 0 0 0 0 0 127 0"/>
<feOffset dy="4"/>
<feGaussianBlur stdDeviation="2"/>
<feColorMatrix type="matrix" values="0 0 0 0 0 0 0 0 0 0 0 0 0 0 0 0 0 0 0.25 0"/>
<feBlend mode="normal" in2="BackgroundImageFix" result="effect1_dropShadow"/>
<feBlend mode="normal" in="SourceGraphic" in2="effect1_dropShadow" result="shape"/>
</filter>
</defs>
</svg>
